<?xml version="1.0" encoding="UTF-8" standalone="no"?>
<svg width="157px" height="20px" viewBox="0 0 157 20" version="1.1" xmlns="http://www.w3.org/2000/svg" xmlns:xlink="http://www.w3.org/1999/xlink">
    <defs>
        <polygon id="path-1" points="0.0249286751 17.9545455 18.4562557 17.9545455 18.4562557 0.167772727 0.0249286751 0.167772727 0.0249286751 17.9545455"></polygon>
        <polygon id="path-3" points="0 19.7727273 156.397921 19.7727273 156.397921 0.0286363636 0 0.0286363636"></polygon>
    </defs>
    <g id="Current" stroke="none" stroke-width="1" fill="none" fill-rule="evenodd">
        <g id="Default" transform="translate(-886.000000, -186.000000)">
            <g id="Group-5" transform="translate(740.000000, 118.000000)">
                <g id="ic_falcon_logo" transform="translate(146.000000, 68.000000)">
                    <polygon id="Fill-1" fill="#2A2C44" points="45.9027496 9.09090909 41.1349702 9.09090909 41.1349702 6.36363636 46.3568239 6.36363636 46.3568239 2.72727273 36.8212651 2.72727273 36.8212651 19.3181818 41.1349702 19.3181818 41.1349702 12.9545455 45.9027496 12.9545455"></polygon>
                    <path d="M53.0442702,13.1818182 L54.8342308,7.95454545 L54.878503,7.95454545 L56.646214,13.1818182 L53.0442702,13.1818182 Z M52.5134574,2.72727273 L46.1048808,19.3181818 L50.7014742,19.3181818 L51.850509,16.5909091 L57.8177255,16.5909091 L58.9004655,19.3181818 L63.5190815,19.3181818 L57.2430945,2.72727273 L52.5134574,2.72727273 Z" id="Fill-2" fill="#2A2C44"></path>
                    <polygon id="Fill-3" fill="#2A2C44" points="69.2875724 2.72727273 64.9738672 2.72727273 64.9738672 19.3181818 74.509426 19.3181818 74.509426 15.6818182 69.2875724 15.6818182"></polygon>
                    <g id="Group-16" transform="translate(0.000000, 0.198659)">
                        <path d="M77.8268469,4.79563636 C76.2355437,6.43245455 75.3734838,8.62245455 75.3734838,10.9010909 C75.3734838,13.3795 76.2132941,15.5472273 78.047527,17.2063182 C79.7714198,18.7776818 81.9843505,19.6617727 84.3051239,19.6617727 C85.6530432,19.6617727 86.5423476,19.3306364 88.1316074,18.8876818 L88.1316074,13.6892727 C87.2234589,14.7733636 85.8078825,15.4585909 84.3934413,15.4585909 C81.6971486,15.4585909 79.8835761,13.5563182 79.8835761,10.9233636 C79.8835761,8.33472727 81.6758071,6.30018182 84.3282817,6.30018182 C85.8085637,6.30018182 87.2234589,6.94109091 88.1316074,8.13609091 L88.1316074,2.93768182 C86.7693847,2.40609091 85.5649528,2.09609091 84.1725342,2.09609091 C81.8297382,2.09609091 79.4619682,3.11427273 77.8268469,4.79563636 L77.8268469,4.79563636 Z" id="Fill-4" fill="#2A2C44"></path>
                        <g id="Group-8" transform="translate(89.906697, 1.818182)">
                            <mask id="mask-2" fill="white">
                                <use xlink:href="#path-1"></use>
                            </mask>
                            <g id="Clip-7"></g>
                            <path d="M9.24059216,13.7511818 C6.65486647,13.7511818 4.53320464,11.6493636 4.53320464,8.773 C4.53320464,6.473 6.65486647,4.37118182 9.24059216,4.37118182 C11.8260908,4.37118182 13.9479797,6.473 13.9479797,8.773 C13.9479797,11.6493636 11.8260908,13.7511818 9.24059216,13.7511818 M9.24059216,0.167772727 C4.44488721,0.167772727 0.0249286751,3.70709091 0.0249286751,8.75186364 C0.0249286751,14.1489091 3.89250591,17.9545909 9.24059216,17.9545909 C14.5886784,17.9545909 18.4562557,14.1489091 18.4562557,8.75186364 C18.4562557,3.70709091 14.0362971,0.167772727 9.24059216,0.167772727" id="Fill-6" fill="#2A2C44" mask="url(#mask-2)"></path>
                        </g>
                        <polygon id="Fill-9" fill="#2A2C44" points="122.641317 12.7558864 122.605218 12.7558864 114.671406 2.52861364 110.381313 2.52861364 110.381313 19.1195227 114.695018 19.1195227 114.695018 8.89225 114.715678 8.89225 122.649717 19.1195227 126.955022 19.1195227 126.955022 2.52861364 122.641317 2.52861364"></polygon>
                        <mask id="mask-4" fill="white">
                            <use xlink:href="#path-3"></use>
                        </mask>
                        <g id="Clip-12"></g>
                        <polygon id="Fill-11" fill="#2A2C44" mask="url(#mask-4)" points="135.128403 19.1195455 136.490626 19.1195455 136.490626 2.52863636 135.128403 2.52863636"></polygon>
                        <path d="M154.947563,10.8319091 C154.947563,6.84963636 151.976101,3.51486364 147.734367,3.51486364 C143.492632,3.51486364 140.521171,6.84963636 140.521171,10.8319091 C140.521171,14.9580455 143.827966,18.1482727 147.734367,18.1482727 C151.64054,18.1482727 154.947563,14.9580455 154.947563,10.8319091 M156.397876,10.8319091 C156.397876,15.7498636 152.515768,19.4603182 147.734367,19.4603182 C142.952965,19.4603182 139.070631,15.7498636 139.070631,10.8319091 C139.070631,6.08918182 142.996556,2.20304545 147.734367,2.20304545 C152.47195,2.20304545 156.397876,6.08918182 156.397876,10.8319091" id="Fill-13" fill="#2A2C44" mask="url(#mask-4)"></path>
                        <path d="M132.295752,18.0853182 C132.295752,18.7314545 131.771978,19.2566818 131.126511,19.2566818 C130.481045,19.2566818 129.956362,18.7314545 129.956362,18.0853182 C129.956362,17.4598636 130.481045,16.9148636 131.126511,16.9148636 C131.771978,16.9148636 132.295752,17.4598636 132.295752,18.0853182" id="Fill-14" fill="#2A2C44" mask="url(#mask-4)"></path>
                        <path d="M31.6979683,19.5718182 C28.5637209,18.8829545 25.7766133,16.8986364 23.6006896,14.0186364 C23.1332202,14.2361364 21.51104,15.2315909 16.8765314,14.9275 C11.4687344,14.5734091 8.33244371,10.2240909 8.33244371,10.2240909 C14.5026313,10.9368182 20.8712494,10.3597727 21.8132264,10.2661364 C21.6858586,9.73227273 21.5217108,9.18340909 21.4517833,8.62159091 C19.7267553,8.65204545 12.0983083,8.72727273 7.51896973,7.41727273 C2.39882874,5.9525 -4.54074227e-05,0.0286363636 -4.54074227e-05,0.0286363636 C9.01014949,0.508181818 22.3708296,2.77727273 26.6445762,3.64727273 C27.4028802,3.80159091 27.9877278,4.42886364 27.9834141,5.20363636 C27.9439096,12.2495455 30.1756844,16.3311364 32.2403599,18.8688636 C32.5811426,19.3059091 32.4471908,19.7684091 31.6979683,19.5718182" id="Fill-15" fill="#2A2C44" mask="url(#mask-4)"></path>
                    </g>
                </g>
            </g>
        </g>
    </g>
</svg>